<mxfile host="app.diagrams.net" modified="2023-10-21T00:15:42.287Z" agent="Mozilla/5.0 (Windows NT 10.0; Win64; x64; rv:109.0) Gecko/20100101 Firefox/118.0" etag="XIXJVPk0sJbErBmmL545" version="22.0.6" type="github">
  <diagram name="Page-1" id="8ce9d11a-91a2-4d17-14d8-a56ed91bf033">
    <mxGraphModel dx="2935" dy="679" grid="1" gridSize="10" guides="1" tooltips="1" connect="1" arrows="1" fold="1" page="1" pageScale="1" pageWidth="1700" pageHeight="1100" background="none" math="0" shadow="0">
      <root>
        <mxCell id="0" />
        <mxCell id="1" parent="0" />
        <mxCell id="jNrnq50WyRlT32AwHWQV-1" value="&lt;div&gt;Main&lt;/div&gt;" style="rounded=1;whiteSpace=wrap;html=1;absoluteArcSize=1;arcSize=14;strokeWidth=2;sketch=1;hachureGap=4;jiggle=2;curveFitting=1;fontFamily=Architects Daughter;fontSource=https%3A%2F%2Ffonts.googleapis.com%2Fcss%3Ffamily%3DArchitects%2BDaughter;fontSize=20;" vertex="1" parent="1">
          <mxGeometry x="61.5" y="10" width="85" height="50" as="geometry" />
        </mxCell>
        <mxCell id="jNrnq50WyRlT32AwHWQV-2" value="扫描在线主机" style="rounded=1;whiteSpace=wrap;html=1;absoluteArcSize=1;arcSize=14;strokeWidth=2;sketch=1;hachureGap=4;jiggle=2;curveFitting=1;fontFamily=Architects Daughter;fontSource=https%3A%2F%2Ffonts.googleapis.com%2Fcss%3Ffamily%3DArchitects%2BDaughter;fontSize=20;" vertex="1" parent="1">
          <mxGeometry x="39.5" y="130" width="127.5" height="30" as="geometry" />
        </mxCell>
        <mxCell id="jNrnq50WyRlT32AwHWQV-24" value="" style="edgeStyle=orthogonalEdgeStyle;rounded=0;sketch=1;hachureGap=4;jiggle=2;curveFitting=1;orthogonalLoop=1;jettySize=auto;html=1;fontFamily=Architects Daughter;fontSource=https%3A%2F%2Ffonts.googleapis.com%2Fcss%3Ffamily%3DArchitects%2BDaughter;fontSize=16;" edge="1" parent="1" source="jNrnq50WyRlT32AwHWQV-5" target="jNrnq50WyRlT32AwHWQV-23">
          <mxGeometry relative="1" as="geometry" />
        </mxCell>
        <mxCell id="jNrnq50WyRlT32AwHWQV-25" value="存活" style="edgeLabel;html=1;align=center;verticalAlign=middle;resizable=0;points=[];fontSize=20;fontFamily=Architects Daughter;" vertex="1" connectable="0" parent="jNrnq50WyRlT32AwHWQV-24">
          <mxGeometry x="-0.3856" y="-4" relative="1" as="geometry">
            <mxPoint as="offset" />
          </mxGeometry>
        </mxCell>
        <mxCell id="jNrnq50WyRlT32AwHWQV-5" value="扫描在线主机" style="rounded=1;whiteSpace=wrap;html=1;absoluteArcSize=1;arcSize=14;strokeWidth=2;sketch=1;hachureGap=4;jiggle=2;curveFitting=1;fontFamily=Architects Daughter;fontSource=https%3A%2F%2Ffonts.googleapis.com%2Fcss%3Ffamily%3DArchitects%2BDaughter;fontSize=20;" vertex="1" parent="1">
          <mxGeometry x="21.75" y="370" width="164.5" height="30" as="geometry" />
        </mxCell>
        <mxCell id="jNrnq50WyRlT32AwHWQV-6" value="循环主机列表" style="strokeWidth=2;html=1;shape=mxgraph.flowchart.decision;whiteSpace=wrap;sketch=1;hachureGap=4;jiggle=2;curveFitting=1;fontFamily=Architects Daughter;fontSource=https%3A%2F%2Ffonts.googleapis.com%2Fcss%3Ffamily%3DArchitects%2BDaughter;fontSize=20;" vertex="1" parent="1">
          <mxGeometry x="20" y="230" width="169" height="70" as="geometry" />
        </mxCell>
        <mxCell id="jNrnq50WyRlT32AwHWQV-8" value="" style="shape=flexArrow;endArrow=classic;html=1;rounded=0;sketch=1;hachureGap=4;jiggle=2;curveFitting=1;fontFamily=Architects Daughter;fontSource=https%3A%2F%2Ffonts.googleapis.com%2Fcss%3Ffamily%3DArchitects%2BDaughter;fontSize=16;" edge="1" parent="1" source="jNrnq50WyRlT32AwHWQV-6" target="jNrnq50WyRlT32AwHWQV-5">
          <mxGeometry width="50" height="50" relative="1" as="geometry">
            <mxPoint x="63.5" y="220" as="sourcePoint" />
            <mxPoint x="113.5" y="170" as="targetPoint" />
          </mxGeometry>
        </mxCell>
        <mxCell id="jNrnq50WyRlT32AwHWQV-11" value="不为空" style="edgeLabel;html=1;align=center;verticalAlign=middle;resizable=0;points=[];fontSize=20;fontFamily=Architects Daughter;" vertex="1" connectable="0" parent="jNrnq50WyRlT32AwHWQV-8">
          <mxGeometry x="-0.2857" y="3" relative="1" as="geometry">
            <mxPoint as="offset" />
          </mxGeometry>
        </mxCell>
        <mxCell id="jNrnq50WyRlT32AwHWQV-14" value="" style="shape=flexArrow;endArrow=classic;html=1;rounded=0;sketch=1;hachureGap=4;jiggle=2;curveFitting=1;fontFamily=Architects Daughter;fontSource=https%3A%2F%2Ffonts.googleapis.com%2Fcss%3Ffamily%3DArchitects%2BDaughter;fontSize=16;" edge="1" parent="1" source="jNrnq50WyRlT32AwHWQV-12">
          <mxGeometry width="50" height="50" relative="1" as="geometry">
            <mxPoint x="213.5" y="310" as="sourcePoint" />
            <mxPoint x="313.5" y="260" as="targetPoint" />
          </mxGeometry>
        </mxCell>
        <mxCell id="jNrnq50WyRlT32AwHWQV-15" value="" style="shape=flexArrow;endArrow=classic;html=1;rounded=0;sketch=1;hachureGap=4;jiggle=2;curveFitting=1;fontFamily=Architects Daughter;fontSource=https%3A%2F%2Ffonts.googleapis.com%2Fcss%3Ffamily%3DArchitects%2BDaughter;fontSize=16;" edge="1" parent="1" source="jNrnq50WyRlT32AwHWQV-6" target="jNrnq50WyRlT32AwHWQV-12">
          <mxGeometry width="50" height="50" relative="1" as="geometry">
            <mxPoint x="183.5" y="260" as="sourcePoint" />
            <mxPoint x="313.5" y="260" as="targetPoint" />
          </mxGeometry>
        </mxCell>
        <mxCell id="jNrnq50WyRlT32AwHWQV-16" value="为空" style="edgeLabel;html=1;align=center;verticalAlign=middle;resizable=0;points=[];fontSize=20;fontFamily=Architects Daughter;" vertex="1" connectable="0" parent="jNrnq50WyRlT32AwHWQV-15">
          <mxGeometry x="-0.0186" y="-3" relative="1" as="geometry">
            <mxPoint as="offset" />
          </mxGeometry>
        </mxCell>
        <mxCell id="jNrnq50WyRlT32AwHWQV-12" value="" style="verticalLabelPosition=bottom;verticalAlign=top;html=1;shape=mxgraph.flowchart.or;sketch=1;hachureGap=4;jiggle=2;curveFitting=1;fontFamily=Architects Daughter;fontSource=https%3A%2F%2Ffonts.googleapis.com%2Fcss%3Ffamily%3DArchitects%2BDaughter;fontSize=20;" vertex="1" parent="1">
          <mxGeometry x="280" y="245" width="46.5" height="40" as="geometry" />
        </mxCell>
        <mxCell id="jNrnq50WyRlT32AwHWQV-21" value="" style="shape=flexArrow;endArrow=classic;html=1;rounded=0;sketch=1;hachureGap=4;jiggle=2;curveFitting=1;fontFamily=Architects Daughter;fontSource=https%3A%2F%2Ffonts.googleapis.com%2Fcss%3Ffamily%3DArchitects%2BDaughter;fontSize=16;exitX=0.5;exitY=1;exitDx=0;exitDy=0;entryX=0.5;entryY=0;entryDx=0;entryDy=0;entryPerimeter=0;" edge="1" parent="1" source="jNrnq50WyRlT32AwHWQV-2" target="jNrnq50WyRlT32AwHWQV-6">
          <mxGeometry width="50" height="50" relative="1" as="geometry">
            <mxPoint x="-46.5" y="230" as="sourcePoint" />
            <mxPoint x="3.5" y="180" as="targetPoint" />
          </mxGeometry>
        </mxCell>
        <mxCell id="jNrnq50WyRlT32AwHWQV-22" value="" style="shape=flexArrow;endArrow=classic;html=1;rounded=0;sketch=1;hachureGap=4;jiggle=2;curveFitting=1;fontFamily=Architects Daughter;fontSource=https%3A%2F%2Ffonts.googleapis.com%2Fcss%3Ffamily%3DArchitects%2BDaughter;fontSize=16;exitX=0.5;exitY=1;exitDx=0;exitDy=0;entryX=0.5;entryY=0;entryDx=0;entryDy=0;" edge="1" parent="1" source="jNrnq50WyRlT32AwHWQV-1" target="jNrnq50WyRlT32AwHWQV-2">
          <mxGeometry width="50" height="50" relative="1" as="geometry">
            <mxPoint x="183.5" y="110" as="sourcePoint" />
            <mxPoint x="233.5" y="60" as="targetPoint" />
          </mxGeometry>
        </mxCell>
        <mxCell id="jNrnq50WyRlT32AwHWQV-54" value="" style="edgeStyle=orthogonalEdgeStyle;rounded=0;sketch=1;hachureGap=4;jiggle=2;curveFitting=1;orthogonalLoop=1;jettySize=auto;html=1;fontFamily=Architects Daughter;fontSource=https%3A%2F%2Ffonts.googleapis.com%2Fcss%3Ffamily%3DArchitects%2BDaughter;fontSize=16;" edge="1" parent="1" source="jNrnq50WyRlT32AwHWQV-23" target="jNrnq50WyRlT32AwHWQV-37">
          <mxGeometry relative="1" as="geometry" />
        </mxCell>
        <mxCell id="jNrnq50WyRlT32AwHWQV-55" value="输出" style="edgeLabel;html=1;align=center;verticalAlign=middle;resizable=0;points=[];fontSize=20;fontFamily=Architects Daughter;" vertex="1" connectable="0" parent="jNrnq50WyRlT32AwHWQV-54">
          <mxGeometry x="-0.2496" y="2" relative="1" as="geometry">
            <mxPoint as="offset" />
          </mxGeometry>
        </mxCell>
        <mxCell id="jNrnq50WyRlT32AwHWQV-23" value="保存到文本文件" style="whiteSpace=wrap;html=1;fontSize=20;fontFamily=Architects Daughter;rounded=1;arcSize=14;strokeWidth=2;sketch=1;hachureGap=4;jiggle=2;curveFitting=1;fontSource=https%3A%2F%2Ffonts.googleapis.com%2Fcss%3Ffamily%3DArchitects%2BDaughter;" vertex="1" parent="1">
          <mxGeometry x="44" y="465" width="120" height="60" as="geometry" />
        </mxCell>
        <mxCell id="jNrnq50WyRlT32AwHWQV-34" value="" style="verticalLabelPosition=bottom;verticalAlign=top;html=1;shape=mxgraph.flowchart.or;sketch=1;hachureGap=4;jiggle=2;curveFitting=1;fontFamily=Architects Daughter;fontSource=https%3A%2F%2Ffonts.googleapis.com%2Fcss%3Ffamily%3DArchitects%2BDaughter;fontSize=20;" vertex="1" parent="1">
          <mxGeometry x="300" y="620" width="46.5" height="40" as="geometry" />
        </mxCell>
        <mxCell id="jNrnq50WyRlT32AwHWQV-39" value="" style="edgeStyle=orthogonalEdgeStyle;rounded=0;sketch=1;hachureGap=4;jiggle=2;curveFitting=1;orthogonalLoop=1;jettySize=auto;html=1;fontFamily=Architects Daughter;fontSource=https%3A%2F%2Ffonts.googleapis.com%2Fcss%3Ffamily%3DArchitects%2BDaughter;fontSize=16;" edge="1" parent="1" source="jNrnq50WyRlT32AwHWQV-37" target="jNrnq50WyRlT32AwHWQV-38">
          <mxGeometry relative="1" as="geometry" />
        </mxCell>
        <mxCell id="jNrnq50WyRlT32AwHWQV-40" value="不为空" style="edgeLabel;html=1;align=center;verticalAlign=middle;resizable=0;points=[];fontSize=20;fontFamily=Architects Daughter;" vertex="1" connectable="0" parent="jNrnq50WyRlT32AwHWQV-39">
          <mxGeometry x="-0.2" y="1" relative="1" as="geometry">
            <mxPoint as="offset" />
          </mxGeometry>
        </mxCell>
        <mxCell id="jNrnq50WyRlT32AwHWQV-51" value="" style="edgeStyle=orthogonalEdgeStyle;rounded=0;sketch=1;hachureGap=4;jiggle=2;curveFitting=1;orthogonalLoop=1;jettySize=auto;html=1;fontFamily=Architects Daughter;fontSource=https%3A%2F%2Ffonts.googleapis.com%2Fcss%3Ffamily%3DArchitects%2BDaughter;fontSize=16;" edge="1" parent="1" source="jNrnq50WyRlT32AwHWQV-37" target="jNrnq50WyRlT32AwHWQV-34">
          <mxGeometry relative="1" as="geometry" />
        </mxCell>
        <mxCell id="jNrnq50WyRlT32AwHWQV-53" value="为空" style="edgeLabel;html=1;align=center;verticalAlign=middle;resizable=0;points=[];fontSize=20;fontFamily=Architects Daughter;" vertex="1" connectable="0" parent="jNrnq50WyRlT32AwHWQV-51">
          <mxGeometry x="-0.0815" y="3" relative="1" as="geometry">
            <mxPoint y="1" as="offset" />
          </mxGeometry>
        </mxCell>
        <mxCell id="jNrnq50WyRlT32AwHWQV-37" value="循环存活主机列表" style="strokeWidth=2;html=1;shape=mxgraph.flowchart.decision;whiteSpace=wrap;sketch=1;hachureGap=4;jiggle=2;curveFitting=1;fontFamily=Architects Daughter;fontSource=https%3A%2F%2Ffonts.googleapis.com%2Fcss%3Ffamily%3DArchitects%2BDaughter;fontSize=20;" vertex="1" parent="1">
          <mxGeometry y="590" width="210" height="100" as="geometry" />
        </mxCell>
        <mxCell id="jNrnq50WyRlT32AwHWQV-45" value="" style="edgeStyle=orthogonalEdgeStyle;rounded=0;sketch=1;hachureGap=4;jiggle=2;curveFitting=1;orthogonalLoop=1;jettySize=auto;html=1;fontFamily=Architects Daughter;fontSource=https%3A%2F%2Ffonts.googleapis.com%2Fcss%3Ffamily%3DArchitects%2BDaughter;fontSize=16;" edge="1" parent="1" source="jNrnq50WyRlT32AwHWQV-38" target="jNrnq50WyRlT32AwHWQV-44">
          <mxGeometry relative="1" as="geometry" />
        </mxCell>
        <mxCell id="jNrnq50WyRlT32AwHWQV-46" value="为空" style="edgeLabel;html=1;align=center;verticalAlign=middle;resizable=0;points=[];fontSize=20;fontFamily=Architects Daughter;" vertex="1" connectable="0" parent="jNrnq50WyRlT32AwHWQV-45">
          <mxGeometry x="-0.0169" y="3" relative="1" as="geometry">
            <mxPoint as="offset" />
          </mxGeometry>
        </mxCell>
        <mxCell id="jNrnq50WyRlT32AwHWQV-48" value="" style="edgeStyle=orthogonalEdgeStyle;rounded=0;sketch=1;hachureGap=4;jiggle=2;curveFitting=1;orthogonalLoop=1;jettySize=auto;html=1;fontFamily=Architects Daughter;fontSource=https%3A%2F%2Ffonts.googleapis.com%2Fcss%3Ffamily%3DArchitects%2BDaughter;fontSize=16;" edge="1" parent="1" source="jNrnq50WyRlT32AwHWQV-38" target="jNrnq50WyRlT32AwHWQV-41">
          <mxGeometry relative="1" as="geometry" />
        </mxCell>
        <mxCell id="jNrnq50WyRlT32AwHWQV-50" value="端口存活" style="edgeLabel;html=1;align=center;verticalAlign=middle;resizable=0;points=[];fontSize=20;fontFamily=Architects Daughter;" vertex="1" connectable="0" parent="jNrnq50WyRlT32AwHWQV-48">
          <mxGeometry x="-0.1824" relative="1" as="geometry">
            <mxPoint as="offset" />
          </mxGeometry>
        </mxCell>
        <mxCell id="jNrnq50WyRlT32AwHWQV-38" value="扫描主机存活端口" style="whiteSpace=wrap;html=1;fontSize=20;fontFamily=Architects Daughter;strokeWidth=2;sketch=1;hachureGap=4;jiggle=2;curveFitting=1;fontSource=https%3A%2F%2Ffonts.googleapis.com%2Fcss%3Ffamily%3DArchitects%2BDaughter;" vertex="1" parent="1">
          <mxGeometry x="47" y="740" width="120" height="60" as="geometry" />
        </mxCell>
        <mxCell id="jNrnq50WyRlT32AwHWQV-41" value="保存到文本文件" style="whiteSpace=wrap;html=1;fontSize=20;fontFamily=Architects Daughter;strokeWidth=2;sketch=1;hachureGap=4;jiggle=2;curveFitting=1;fontSource=https%3A%2F%2Ffonts.googleapis.com%2Fcss%3Ffamily%3DArchitects%2BDaughter;" vertex="1" parent="1">
          <mxGeometry x="47" y="860" width="120" height="60" as="geometry" />
        </mxCell>
        <mxCell id="jNrnq50WyRlT32AwHWQV-44" value="" style="verticalLabelPosition=bottom;verticalAlign=top;html=1;shape=mxgraph.flowchart.or;sketch=1;hachureGap=4;jiggle=2;curveFitting=1;fontFamily=Architects Daughter;fontSource=https%3A%2F%2Ffonts.googleapis.com%2Fcss%3Ffamily%3DArchitects%2BDaughter;fontSize=20;" vertex="1" parent="1">
          <mxGeometry x="290" y="750" width="46.5" height="40" as="geometry" />
        </mxCell>
      </root>
    </mxGraphModel>
  </diagram>
</mxfile>
